<svg id="_x31_px" enable-background="new 0 0 24 24" height="512" viewBox="0 0 24 24" width="512" xmlns="http://www.w3.org/2000/svg"><path d="m16.5 21h-3c-.276 0-.5-.224-.5-.5s.224-.5.5-.5h3c.276 0 .5.224.5.5s-.224.5-.5.5z"/><path d="m16.5 23c-.276 0-.5-.224-.5-.5v-5c0-.276.224-.5.5-.5s.5.224.5.5v5c0 .276-.224.5-.5.5z"/><path d="m13.5 23c-.276 0-.5-.224-.5-.5v-5c0-.276.224-.5.5-.5s.5.224.5.5v5c0 .276-.224.5-.5.5z"/><path d="m8.5 24c-.276 0-.5-.224-.5-.5v-4c0-.276.224-.5.5-.5h1c.827 0 1.5.673 1.5 1.5s-.673 1.5-1.5 1.5h-.5v1.5c0 .276-.224.5-.5.5zm.5-3h.5c.276 0 .5-.224.5-.5s-.224-.5-.5-.5h-.5z"/><path d="m12 16c-3.309 0-6-2.691-6-6 0-4.159 5.416-9.623 5.646-9.854.195-.195.512-.195.707 0 .231.231 5.647 5.695 5.647 9.854 0 3.309-2.691 6-6 6zm0-14.777c-1.194 1.278-5 5.603-5 8.777 0 2.757 2.243 5 5 5s5-2.243 5-5c0-3.177-3.806-7.499-5-8.777z"/></svg>