<svg height="512" viewBox="0 0 512 512" width="512" xmlns="http://www.w3.org/2000/svg"><g><path d="m262.09 10.82a7.986 7.986 0 0 0 -12.18 0c-7.27 8.53-177.91 210.17-177.91 309.18 0 101.46 82.54 184 184 184s184-82.54 184-184c0-99.01-170.64-300.65-177.91-309.18zm-6.09 477.18c-92.64 0-168-75.36-168-168 0-83.1 137.16-254.11 168-291.5 30.84 37.38 168 208.37 168 291.5 0 92.64-75.36 168-168 168z"/><path d="m256 456a136.232 136.232 0 0 1 -128.448-91.278 8 8 0 1 0 -15.105 5.278 152.248 152.248 0 0 0 143.553 102 8 8 0 0 0 0-16z"/><path d="m208 272a8 8 0 0 0 8-8v-16h16v16a8 8 0 0 0 16 0v-48a8 8 0 0 0 -16 0v16h-16v-16a8 8 0 0 0 -16 0v48a8 8 0 0 0 8 8z"/><path d="m304 208h-32a8 8 0 0 0 -8 8v48a8 8 0 0 0 8 8h32a8 8 0 0 0 8-8v-48a8 8 0 0 0 -8-8zm-8 48h-16v-32h16z"/><path d="m264 280h-16a8 8 0 0 0 0 16h8v3.056l-11.578 5.789a8 8 0 0 0 -4.422 7.155v16a8 8 0 0 0 8 8h16a8 8 0 0 0 0-16h-8v-3.056l11.578-5.789a8 8 0 0 0 4.422-7.155v-16a8 8 0 0 0 -8-8z"/></g></svg>